<svg width="36" height="36" viewBox="0 0 36 36" fill="#44546A" xmlns="http://www.w3.org/2000/svg">
<g id="Group 693">
<path id="Vector" d="M35.5 18.0007C35.5 27.6655 27.6655 35.5 17.9993 35.5C8.33455 35.5 0.5 27.6642 0.5 18.0007C0.5 8.3345 8.33455 0.5 17.9993 0.5C27.6642 0.5 35.5 8.33584 35.5 18.0007Z" stroke="none"/>
<path id="Subtract" fill-rule="evenodd" clip-rule="evenodd" d="M27.8718 23.1566V12.9895C27.8718 11.9178 26.9994 11.0454 25.9277 11.0454H9.89873C8.82696 11.0454 7.95459 11.9178 7.95459 12.9895V23.1566C7.95459 24.2284 8.82696 25.1008 9.89873 25.1008H25.9277C26.9994 25.1008 27.8718 24.2284 27.8718 23.1566ZM26.2732 23.1566C26.2732 23.347 26.118 23.5022 25.9277 23.5022H9.89873C9.70839 23.5022 9.55318 23.347 9.55318 23.1566V13.4541L17.4158 19.6977C17.562 19.8133 17.7376 19.8711 17.9132 19.8711C18.0888 19.8711 18.2655 19.8133 18.4106 19.6977L26.2732 13.4541V23.1566ZM17.9121 18.0516L24.7222 12.644H11.1019L17.9121 18.0516Z" fill="#ADB8C7"/>
</g>
</svg>
