<svg width="36" height="36" viewBox="0 0 36 36" fill="none" xmlns="http://www.w3.org/2000/svg">
<path d="M35.5 18.0007C35.5 27.6655 27.6661 35.5 18.0007 35.5C8.33524 35.5 0.5 27.6641 0.5 18.0007C0.5 8.33454 8.33524 0.5 18.0007 0.5C27.6647 0.5 35.5 8.33581 35.5 18.0007Z" stroke="#ADB8C7"/>
<path fill-rule="evenodd" clip-rule="evenodd" d="M13.6203 10.2734H21.8161C23.6613 10.2734 25.1642 11.7752 25.1642 13.6206V21.7737C25.1642 23.6191 23.6624 25.1209 21.8161 25.1209H13.6203C11.7751 25.1209 10.2734 23.6191 10.2734 21.7737V13.6206C10.2734 11.7752 11.7751 10.2734 13.6203 10.2734ZM17.6973 14.4786H17.7403C19.4983 14.4786 20.9581 15.9374 20.9581 17.6966C20.9581 19.4988 19.4994 20.9576 17.7403 20.9576H17.6973C15.9371 20.9576 14.4783 19.4988 14.4783 17.6966C14.4783 15.9374 15.9371 14.4786 17.6973 14.4786ZM17.6973 12.8045H17.7403C20.4005 12.8045 22.6322 15.0363 22.6322 17.6966C22.6322 20.4 20.4005 22.5887 17.7403 22.5887H17.6973C15.0371 22.5887 12.8485 20.4011 12.8485 17.6966C12.8485 15.0363 15.0371 12.8045 17.6973 12.8045ZM22.5449 11.8603C23.1037 11.8603 23.5752 12.3329 23.5752 12.8906C23.5752 13.4483 23.1037 13.9198 22.5449 13.9198C21.9453 13.9198 21.5169 13.4483 21.5169 12.8906C21.5169 12.3329 21.9464 11.8603 22.5449 11.8603ZM13.5773 8.72729H21.8592C24.5193 8.72729 26.7079 10.9161 26.7079 13.5764V21.8157C26.7079 24.4771 24.5204 26.6647 21.8592 26.6647H13.5773C10.9171 26.6647 8.72852 24.476 8.72852 21.8157V13.5764C8.72852 10.9161 10.9171 8.72729 13.5773 8.72729Z" fill="#44546A"/>
</svg>
