<svg width="36" height="36" viewBox="0 0 36 36" fill="none" xmlns="http://www.w3.org/2000/svg">
<path d="M35.5 18.0007C35.5 27.6655 27.6655 35.5 17.9993 35.5C8.33455 35.5 0.5 27.6642 0.5 18.0007C0.5 8.3345 8.33455 0.5 17.9993 0.5C27.6655 0.5 35.5 8.33582 35.5 18.0007Z" stroke="#ADB8C7"/>
<path fill-rule="evenodd" clip-rule="evenodd" d="M18.5057 15.6059C17.7802 11.7804 22.381 9.50431 25.0924 12.2644C25.0924 12.2644 26.3029 11.9254 27.3684 11.2476C27.3684 11.2476 26.9807 12.5545 25.6727 13.3774C25.6727 13.3774 27.1258 13.1836 27.756 12.796C27.756 12.796 27.1258 14.1029 25.964 14.588C26.5942 23.3533 17.1511 28.6795 9.50122 24.3213C9.50122 24.3213 13.278 24.5151 14.8751 22.6754C14.8751 22.6754 12.5514 22.8693 11.3885 20.0605C11.3885 20.0605 12.2601 20.3994 13.1318 19.963C13.1318 19.963 10.4193 19.5278 10.1779 16.2826C10.1779 16.2826 11.0484 16.9604 12.0164 16.7178C12.0164 16.7178 9.01495 14.9258 10.7095 11.6817C10.7095 11.6817 13.906 15.7498 18.5057 15.6036V15.6059Z" fill="#44546A"/>
</svg>
