<svg width="36" height="36" viewBox="0 0 36 36" fill="none" xmlns="http://www.w3.org/2000/svg">
<path d="M35.5 18.0007C35.5 27.6654 27.6645 35.5 18 35.5C8.33554 35.5 0.5 27.6641 0.5 18.0007C0.5 8.33451 8.33425 0.5 18 0.5C27.6644 0.5 35.5 8.33583 35.5 18.0007Z" stroke="#ADB8C7"/>
<path fill-rule="evenodd" clip-rule="evenodd" d="M12.0512 24.6633L13.3253 24.4354L14.1007 24.2994C15.1934 24.8911 16.3769 25.2108 17.6986 25.2108C23.6 25.2108 27.9302 18.3754 23.193 12.2031C17.0207 7.46474 10.1853 11.7961 10.1853 17.6975C10.1853 19.2006 10.641 20.5666 11.3688 21.75L11.2781 22.4335L11.0956 23.7995L10.9595 24.8469L12.0512 24.6644V24.6633ZM17.6975 8.72754C22.6603 8.72754 26.6663 12.7347 26.6663 17.6975C26.6663 22.6603 22.6603 26.6674 17.6975 26.6674C16.3315 26.6674 15.0563 26.3942 13.9182 25.8479L9.13676 26.6674L9.77496 21.9314L9.72848 21.8407C9.09142 20.6119 8.72754 19.2006 8.72754 17.6975C8.72754 12.7347 12.7347 8.72754 17.6975 8.72754ZM14.5099 13.5996C15.0121 13.2811 15.3306 13.5078 15.5131 14.0088L15.9688 15.1923C15.9688 15.1923 16.2873 15.8294 15.4666 16.4676C15.3317 16.5582 15.3317 16.5582 15.3759 16.7861C15.5584 17.3325 16.2862 18.9716 18.61 20.2469C18.8379 20.3829 18.8832 20.3829 19.1111 20.2015C19.2924 20.019 19.5203 19.7912 19.7016 19.6098C20.112 19.2459 20.3398 19.1088 20.7037 19.382C20.9769 19.5645 21.2512 19.7912 21.5233 19.9737C21.7965 20.2015 22.2522 20.4747 21.7965 21.0211L21.3861 21.5222C20.7955 22.251 20.2945 22.2964 19.5191 22.1139C16.5605 21.3397 14.375 19.2459 13.4183 16.2851C13.0997 15.147 13.5543 14.1902 14.511 13.5985L14.5099 13.5996Z" fill="#44546A"/>
</svg>
